<svg width="48" height="48" viewBox="0 0 48 48" fill="none" xmlns="http://www.w3.org/2000/svg">
<circle cx="24" cy="24" r="24" fill="#E12C46"/>
<path opacity="0.4" d="M20.56 15.3398V29.6698C20.22 29.6798 19.88 29.7598 19.63 29.9098L17.28 31.2498C15.64 32.1898 14.29 31.4098 14.29 29.5098V19.7798C14.29 19.1498 14.74 18.3698 15.3 18.0498L19.63 15.5698C19.88 15.4298 20.22 15.3498 20.56 15.3398Z" fill="white"/>
<path d="M27.7296 18.3299V32.6599C27.3796 32.6699 27.0396 32.6099 26.7696 32.4799L21.5196 29.8499C21.2496 29.7199 20.9096 29.6599 20.5596 29.6699V15.3399C20.9096 15.3299 21.2496 15.3899 21.5196 15.5199L26.7696 18.1499C27.0396 18.2799 27.3796 18.3399 27.7296 18.3299Z" fill="white"/>
<path opacity="0.4" d="M34.0005 18.4901V28.2201C34.0005 28.8501 33.5505 29.6301 32.9905 29.9501L28.6605 32.4301C28.4105 32.5701 28.0705 32.6501 27.7305 32.6601V18.3301C28.0705 18.3201 28.4105 18.2401 28.6605 18.0901L31.0105 16.7501C32.6505 15.8101 34.0005 16.5901 34.0005 18.4901Z" fill="white"/>
</svg>
