<svg width="48" height="48" viewBox="0 0 48 48" fill="none" xmlns="http://www.w3.org/2000/svg">
<circle cx="24" cy="24" r="24" fill="#E12C46"/>
<path opacity="0.4" d="M24 34C29.5228 34 34 29.5228 34 24C34 18.4772 29.5228 14 24 14C18.4772 14 14 18.4772 14 24C14 29.5228 18.4772 34 24 34Z" fill="white"/>
<path d="M27.7096 27.9298C27.5796 27.9298 27.4496 27.8998 27.3296 27.8198L24.2296 25.9698C23.4596 25.5098 22.8896 24.4998 22.8896 23.6098V19.5098C22.8896 19.0998 23.2296 18.7598 23.6396 18.7598C24.0496 18.7598 24.3896 19.0998 24.3896 19.5098V23.6098C24.3896 23.9698 24.6896 24.4998 24.9996 24.6798L28.0996 26.5298C28.4596 26.7398 28.5696 27.1998 28.3596 27.5598C28.2096 27.7998 27.9596 27.9298 27.7096 27.9298Z" fill="white"/>
</svg>
