<svg width="48" height="48" viewBox="0 0 48 48" fill="none" xmlns="http://www.w3.org/2000/svg">
<circle cx="24" cy="24" r="24" fill="#E12C46"/>
<path d="M29.62 22.7496C29.19 22.7496 28.85 22.3996 28.85 21.9796C28.85 21.6096 28.48 20.8396 27.86 20.1696C27.25 19.5196 26.58 19.1396 26.02 19.1396C25.59 19.1396 25.25 18.7896 25.25 18.3696C25.25 17.9496 25.6 17.5996 26.02 17.5996C27.02 17.5996 28.07 18.1396 28.99 19.1096C29.85 20.0196 30.4 21.1496 30.4 21.9696C30.4 22.3996 30.05 22.7496 29.62 22.7496Z" fill="white"/>
<path d="M33.2298 22.75C32.7998 22.75 32.4598 22.4 32.4598 21.98C32.4598 18.43 29.5698 15.55 26.0298 15.55C25.5998 15.55 25.2598 15.2 25.2598 14.78C25.2598 14.36 25.5998 14 26.0198 14C30.4198 14 33.9998 17.58 33.9998 21.98C33.9998 22.4 33.6498 22.75 33.2298 22.75Z" fill="white"/>
<path opacity="0.4" d="M23.79 26.21L20.52 29.48C20.16 29.16 19.81 28.83 19.47 28.49C18.44 27.45 17.51 26.36 16.68 25.22C15.86 24.08 15.2 22.94 14.72 21.81C14.24 20.67 14 19.58 14 18.54C14 17.86 14.12 17.21 14.36 16.61C14.6 16 14.98 15.44 15.51 14.94C16.15 14.31 16.85 14 17.59 14C17.87 14 18.15 14.06 18.4 14.18C18.66 14.3 18.89 14.48 19.07 14.74L21.39 18.01C21.57 18.26 21.7 18.49 21.79 18.71C21.88 18.92 21.93 19.13 21.93 19.32C21.93 19.56 21.86 19.8 21.72 20.03C21.59 20.26 21.4 20.5 21.16 20.74L20.4 21.53C20.29 21.64 20.24 21.77 20.24 21.93C20.24 22.01 20.25 22.08 20.27 22.16C20.3 22.24 20.33 22.3 20.35 22.36C20.53 22.69 20.84 23.12 21.28 23.64C21.73 24.16 22.21 24.69 22.73 25.22C23.09 25.57 23.44 25.91 23.79 26.21Z" fill="white"/>
<path d="M33.9696 30.33C33.9696 30.61 33.9196 30.9 33.8196 31.18C33.7896 31.26 33.7596 31.34 33.7196 31.42C33.5496 31.78 33.3296 32.12 33.0396 32.44C32.5496 32.98 32.0096 33.37 31.3996 33.62C31.3896 33.62 31.3796 33.63 31.3696 33.63C30.7796 33.87 30.1396 34 29.4496 34C28.4296 34 27.3396 33.76 26.1896 33.27C25.0396 32.78 23.8896 32.12 22.7496 31.29C22.3596 31 21.9696 30.71 21.5996 30.4L24.8696 27.13C25.1496 27.34 25.3996 27.5 25.6096 27.61C25.6596 27.63 25.7196 27.66 25.7896 27.69C25.8696 27.72 25.9496 27.73 26.0396 27.73C26.2096 27.73 26.3396 27.67 26.4496 27.56L27.2096 26.81C27.4596 26.56 27.6996 26.37 27.9296 26.25C28.1596 26.11 28.3896 26.04 28.6396 26.04C28.8296 26.04 29.0296 26.08 29.2496 26.17C29.4696 26.26 29.6996 26.39 29.9496 26.56L33.2596 28.91C33.5196 29.09 33.6996 29.3 33.8096 29.55C33.9096 29.8 33.9696 30.05 33.9696 30.33Z" fill="white"/>
</svg>
