<svg width="49" height="48" viewBox="0 0 49 48" fill="none" xmlns="http://www.w3.org/2000/svg">
<rect x="0.666992" width="48" height="48" rx="10" fill="white"/>
<path d="M31.2068 16.1198L25.7068 14.0598C25.1368 13.8498 24.2068 13.8498 23.6368 14.0598L18.1368 16.1198C17.0768 16.5198 16.2168 17.7598 16.2168 18.8898V26.9898C16.2168 27.7998 16.7468 28.8698 17.3968 29.3498L22.8968 33.4598C23.8668 34.1898 25.4568 34.1898 26.4268 33.4598L31.9268 29.3498C32.5768 28.8598 33.1068 27.7998 33.1068 26.9898V18.8898C33.1168 17.7598 32.2568 16.5198 31.2068 16.1198ZM28.1468 21.7198L23.8468 26.0198C23.6968 26.1698 23.5068 26.2398 23.3168 26.2398C23.1268 26.2398 22.9368 26.1698 22.7868 26.0198L21.1868 24.3998C20.8968 24.1098 20.8968 23.6298 21.1868 23.3398C21.4768 23.0498 21.9568 23.0498 22.2468 23.3398L23.3268 24.4198L27.0968 20.6498C27.3868 20.3598 27.8668 20.3598 28.1568 20.6498C28.4468 20.9398 28.4468 21.4298 28.1468 21.7198Z" fill="#E12C46"/>
</svg>
