<svg width="48" height="48" viewBox="0 0 48 48" fill="none" xmlns="http://www.w3.org/2000/svg">
<rect width="48" height="48" rx="10" fill="white"/>
<path d="M29.2903 16.14L29.2203 19.93C29.2103 20.45 29.5403 21.14 29.9603 21.45L32.4403 23.33C34.0303 24.53 33.7703 26 31.8703 26.6L28.6403 27.61C28.1003 27.78 27.5303 28.37 27.3903 28.92L26.6203 31.86C26.0103 34.18 24.4903 34.41 23.2303 32.37L21.4703 29.52C21.1503 29 20.3903 28.61 19.7903 28.64L16.4503 28.81C14.0603 28.93 13.3803 27.55 14.9403 25.73L16.9203 23.43C17.2903 23 17.4603 22.2 17.2903 21.66L16.2703 18.42C15.6803 16.52 16.7403 15.47 18.6303 16.09L21.5803 17.06C22.0803 17.22 22.8303 17.11 23.2503 16.8L26.3303 14.58C28.0003 13.39 29.3303 14.09 29.2903 16.14Z" fill="#E12C46"/>
<path d="M33.4403 32.4702L30.4103 29.4402C30.1203 29.1502 29.6403 29.1502 29.3503 29.4402C29.0603 29.7302 29.0603 30.2102 29.3503 30.5002L32.3803 33.5302C32.5303 33.6802 32.7203 33.7502 32.9103 33.7502C33.1003 33.7502 33.2903 33.6802 33.4403 33.5302C33.7303 33.2402 33.7303 32.7602 33.4403 32.4702Z" fill="#E12C46"/>
</svg>
