<svg width="49" height="48" viewBox="0 0 49 48" fill="none" xmlns="http://www.w3.org/2000/svg">
<rect x="0.333008" width="48" height="48" rx="10" fill="white"/>
<path d="M33.423 18.9795C32.573 18.0395 31.153 17.5695 29.093 17.5695H28.853V17.5295C28.853 15.8495 28.853 13.7695 25.093 13.7695H23.573C19.813 13.7695 19.813 15.8595 19.813 17.5295V17.5795H19.573C17.503 17.5795 16.093 18.0495 15.243 18.9895C14.253 20.0895 14.283 21.5695 14.383 22.5795L14.393 22.6495L14.4705 23.4628C14.4848 23.6126 14.5654 23.7479 14.6913 23.8303C14.9311 23.9872 15.3325 24.2459 15.573 24.3795C15.713 24.4695 15.863 24.5495 16.013 24.6295C17.723 25.5695 19.603 26.1995 21.513 26.5095C21.603 27.4495 22.013 28.5495 24.203 28.5495C26.393 28.5495 26.823 27.4595 26.893 26.4895C28.933 26.1595 30.903 25.4495 32.683 24.4095C32.743 24.3795 32.783 24.3495 32.833 24.3195C33.2298 24.0953 33.6414 23.819 34.0165 23.5484C34.1295 23.4668 34.2018 23.3408 34.2172 23.2023L34.233 23.0595L34.283 22.5895C34.293 22.5295 34.293 22.4795 34.303 22.4095C34.383 21.3995 34.363 20.0195 33.423 18.9795ZM25.423 25.8295C25.423 26.8895 25.423 27.0495 24.193 27.0495C22.963 27.0495 22.963 26.8595 22.963 25.8395V24.5795H25.423V25.8295ZM21.243 17.5695V17.5295C21.243 15.8295 21.243 15.1995 23.573 15.1995H25.093C27.423 15.1995 27.423 15.8395 27.423 17.5295V17.5795H21.243V17.5695Z" fill="#E12C46"/>
<path d="M33.2063 25.7339C33.5599 25.5656 33.9672 25.8459 33.9318 26.2359L33.5729 30.1897C33.3629 32.1897 32.5429 34.2297 28.1429 34.2297H20.5229C16.1229 34.2297 15.3029 32.1897 15.0929 30.1997L14.7521 26.4519C14.7171 26.0664 15.1151 25.7865 15.4677 25.946C16.6071 26.4615 18.7102 27.3761 20.0094 27.7164C20.1737 27.7594 20.3066 27.877 20.3786 28.0309C20.9855 29.329 22.302 30.0197 24.2029 30.0197C26.085 30.0197 27.418 29.3024 28.027 28.0011C28.099 27.8471 28.2321 27.7296 28.3965 27.6863C29.776 27.3233 32.0146 26.301 33.2063 25.7339Z" fill="#E12C46"/>
</svg>
