<svg width="48" height="48" viewBox="0 0 48 48" fill="none" xmlns="http://www.w3.org/2000/svg">
<rect width="48" height="48" rx="10" fill="white"/>
<path d="M24 14C18.48 14 14 18.48 14 24C14 29.52 18.48 34 24 34C29.52 34 34 29.52 34 24C34 18.48 29.52 14 24 14ZM18.6 23.23C18.77 22.04 19.3 20.97 20.13 20.13C22.13 18.14 25.28 18.03 27.42 19.77V18.82C27.42 18.41 27.76 18.07 28.17 18.07C28.58 18.07 28.92 18.41 28.92 18.82V21.49C28.92 21.9 28.58 22.24 28.17 22.24H25.5C25.09 22.24 24.75 21.9 24.75 21.49C24.75 21.08 25.09 20.74 25.5 20.74H26.25C24.7 19.66 22.56 19.81 21.18 21.19C20.58 21.79 20.2 22.57 20.07 23.44C20.02 23.81 19.7 24.08 19.33 24.08C19.29 24.08 19.26 24.08 19.22 24.07C18.83 24.02 18.54 23.64 18.6 23.23ZM27.87 27.87C26.8 28.94 25.4 29.47 24 29.47C22.78 29.47 21.57 29.04 20.57 28.23V29.17C20.57 29.58 20.23 29.92 19.82 29.92C19.41 29.92 19.07 29.58 19.07 29.17V26.5C19.07 26.09 19.41 25.75 19.82 25.75H22.49C22.9 25.75 23.24 26.09 23.24 26.5C23.24 26.91 22.9 27.25 22.49 27.25H21.74C23.29 28.33 25.43 28.18 26.81 26.8C27.41 26.2 27.79 25.42 27.92 24.55C27.98 24.14 28.35 23.85 28.77 23.91C29.18 23.97 29.46 24.35 29.41 24.76C29.23 25.97 28.7 27.04 27.87 27.87Z" fill="#E12C46"/>
</svg>
