<svg width="23" height="23" viewBox="0 0 23 23" fill="none" xmlns="http://www.w3.org/2000/svg">
<path d="M13.4167 18.2083H14.375V20.125H1.91667V18.2083H2.87501V3.83333C2.87501 3.30406 3.30407 2.875 3.83334 2.875H12.4583C12.9876 2.875 13.4167 3.30406 13.4167 3.83333V11.5H15.3333C16.3919 11.5 17.25 12.3581 17.25 13.4167V17.25C17.25 17.7793 17.6791 18.2083 18.2083 18.2083C18.7376 18.2083 19.1667 17.7793 19.1667 17.25V10.5417H17.25C16.7207 10.5417 16.2917 10.1126 16.2917 9.58333V6.14695L14.7038 4.55914L16.0592 3.20385L20.8026 7.94735C20.9898 8.13449 21.0833 8.37974 21.0833 8.625V17.25C21.0833 18.8379 19.7962 20.125 18.2083 20.125C16.6205 20.125 15.3333 18.8379 15.3333 17.25V13.4167H13.4167V18.2083ZM4.79167 18.2083H11.5V12.4583H4.79167V18.2083ZM4.79167 4.79167V10.5417H11.5V4.79167H4.79167Z" fill="white"/>
</svg>
