<svg width="27" height="27" viewBox="0 0 27 27" fill="none" xmlns="http://www.w3.org/2000/svg">
<g clip-path="url(#clip0_279_467)">
<path d="M24.75 4.51114C23.625 5.06239 22.5225 5.28627 21.375 5.62489C20.1139 4.20177 18.2441 4.12302 16.4475 4.79577C14.6509 5.46852 13.4741 7.11327 13.5 8.99989V10.1249C9.84938 10.2183 6.59813 8.55552 4.5 5.62489C4.5 5.62489 -0.20475 13.987 9 17.9999C6.894 19.4028 4.79362 20.3489 2.25 20.2499C5.9715 22.2783 10.0271 22.9758 13.5383 21.9565C17.5658 20.7865 20.8755 17.7681 22.1456 13.2468C22.5245 11.8716 22.7126 10.451 22.7047 9.02464C22.7025 8.74452 24.4035 5.90614 24.75 4.51002V4.51114Z" stroke="black" stroke-width="1.5" stroke-linecap="round" stroke-linejoin="round"/>
</g>
<defs>
<clipPath id="clip0_279_467">
<rect width="27" height="27" fill="white"/>
</clipPath>
</defs>
</svg>
