<svg width="123" height="23" viewBox="0 0 123 23" fill="none" xmlns="http://www.w3.org/2000/svg">
<path d="M123 0.00144388L105.127 23H0L17.7784 0L123 0.00144388Z" fill="#FA0305"/>
<path d="M82.4127 11.5043C82.4127 15.2915 77.9215 18.3627 72.3803 18.3627C69.0438 18.3627 66.0903 17.2485 64.2657 15.5354L68.285 13.0876C69.0624 14.1585 70.6045 14.8873 72.3803 14.8873C74.9393 14.8873 77.0135 13.3733 77.0135 11.5043C77.0135 9.63671 74.9393 8.12127 72.3803 8.12127C71.0276 8.12127 69.8112 8.54414 68.9635 9.21959L64.227 9.76804L63.088 8.91796C64.5827 6.41388 68.1788 4.64732 72.3803 4.64732C77.9215 4.64587 82.4127 7.71716 82.4127 11.5043ZM59.1462 13.369L53.9277 13.9362C53.0943 14.5251 51.9597 14.8873 50.7088 14.8873C48.1498 14.8873 46.0756 13.3733 46.0756 11.5043C46.0756 9.63671 48.1498 8.12127 50.7088 8.12127C52.6353 8.12127 54.2863 8.98002 54.9849 10.1996L59.0185 7.66087C57.214 5.84235 54.1658 4.64587 50.7088 4.64587C45.1676 4.64587 40.6764 7.71572 40.6764 11.5043C40.6764 15.2915 45.1676 18.3627 50.7088 18.3627C54.9376 18.3627 58.5523 16.5731 60.0284 14.043L59.1462 13.369ZM106.626 5.08463L101.079 12.0729C100.973 12.1971 100.771 12.122 100.769 11.9575L100.72 4.96194H95.1462C95.0387 4.96194 94.9368 5.01102 94.8694 5.09617L89.4056 12.0325C89.3023 12.1639 89.0929 12.0917 89.0915 11.9243L89.0456 5.31555C89.0441 5.12071 88.8864 4.96339 88.6927 4.96339H84.3708C84.1757 4.96339 84.0179 5.12216 84.0179 5.31844L84.0365 17.6916C84.0365 17.8879 84.1943 18.0452 84.3894 18.0452H89.8087C89.9148 18.0452 90.0138 17.9976 90.0812 17.9153L95.3915 11.4105C95.4962 11.282 95.7042 11.3571 95.7042 11.5231L95.7128 17.6916C95.7128 17.8879 95.8706 18.0452 96.0657 18.0452H101.98C102.079 18.0452 102.174 18.0034 102.24 17.9298L112.157 5.55657C112.364 5.32853 112.203 4.96339 111.898 4.96339H106.891C106.791 4.96339 106.693 5.00814 106.626 5.08463ZM16.8461 17.9225L22.3931 10.9342C22.4992 10.8101 22.7015 10.8851 22.7029 11.0497L22.7517 18.0452H28.3259C28.4335 18.0452 28.5353 17.9961 28.6027 17.911L34.0665 10.9746C34.1698 10.8433 34.3792 10.9154 34.3807 11.0829L34.4266 17.6916C34.428 17.8865 34.5858 18.0438 34.7794 18.0438H39.1014C39.2965 18.0438 39.4543 17.885 39.4543 17.6887L39.4356 5.31555C39.4356 5.11927 39.2778 4.96194 39.0827 4.96194H33.6634C33.5573 4.96194 33.4583 5.00957 33.3909 5.09184L28.0806 11.5967C27.9759 11.7251 27.7679 11.6501 27.7679 11.4841L27.7593 5.31555C27.7593 5.11927 27.6015 4.96194 27.4064 4.96194H21.4937C21.3947 4.96194 21.3 5.0038 21.234 5.07741L11.3164 17.4506C11.1098 17.6786 11.2705 18.0438 11.576 18.0438H16.5822C16.6826 18.0452 16.7787 18.0005 16.8461 17.9225Z" fill="white"/>
<path d="M59.5274 11.78L63.3043 14.2437L69.9644 10.5922L63.9139 11.3845L59.9506 8.95551L53.292 12.6084L59.5274 11.78Z" fill="white"/>
</svg>
