<svg width="135" height="27" viewBox="0 0 135 27" fill="none" xmlns="http://www.w3.org/2000/svg">
<path d="M95.1286 9.16231C95.1286 14.22 89.1264 18.3214 81.7225 18.3214C77.2643 18.3214 73.3171 16.8339 70.8792 14.5461L76.2502 11.2767C77.2896 12.7054 79.3494 13.6806 81.7225 13.6806C85.1428 13.6806 87.9145 11.6585 87.9145 9.16231C87.9145 6.66769 85.1428 4.644 81.7225 4.644C79.9158 4.644 78.2895 5.20879 77.1583 6.10927L70.8302 6.8411L69.3083 5.70676C71.3048 2.36098 76.1094 0.00318468 81.724 0.00318468C89.1264 0.00318468 95.1286 4.10466 95.1286 9.16231ZM64.0385 11.6522L57.0649 12.4094C55.9512 13.1954 54.4356 13.679 52.7634 13.679C49.343 13.679 46.5713 11.6569 46.5713 9.16072C46.5713 6.6661 49.343 4.64241 52.7634 4.64241C55.3374 4.64241 57.5443 5.78789 58.4777 7.41862L63.8661 4.02671C61.4551 1.59732 57.3813 0 52.7618 0C45.3579 0 39.3557 4.09989 39.3557 9.15912C39.3557 14.2184 45.3579 18.3182 52.7618 18.3182C58.4128 18.3182 63.2428 15.9286 65.2156 12.5479L64.0385 11.6522ZM127.483 0.590248L120.071 9.92278C119.928 10.0882 119.66 9.98801 119.658 9.76846L119.593 0.42638H112.145C112.001 0.42638 111.865 0.493201 111.776 0.606158L104.475 9.86869C104.338 10.0437 104.058 9.94665 104.056 9.72392L103.994 0.8973C103.993 0.636384 103.782 0.42638 103.523 0.42638H97.7484C97.4874 0.42638 97.277 0.639564 97.277 0.90048L97.3007 17.4241C97.3007 17.685 97.5111 17.8966 97.7722 17.8966H105.015C105.155 17.8966 105.288 17.833 105.379 17.7232L112.474 9.03662C112.615 8.8648 112.892 8.96503 112.892 9.18617L112.904 17.4241C112.904 17.685 113.115 17.8966 113.376 17.8966H121.275C121.408 17.8966 121.533 17.841 121.623 17.7423L134.876 1.21867C135.152 0.914799 134.937 0.42638 134.527 0.42638H127.839C127.701 0.42638 127.571 0.486837 127.483 0.590248ZM7.51732 17.7344L14.9291 8.40183C15.0715 8.23637 15.3405 8.3366 15.342 8.55615L15.4069 17.8982H22.8551C22.9991 17.8982 23.1351 17.8314 23.2237 17.7185L30.5248 8.45592C30.6624 8.28092 30.9424 8.37797 30.944 8.6007L31.0057 17.4273C31.0073 17.6882 31.2177 17.8982 31.4772 17.8982H37.2516C37.5126 17.8982 37.723 17.685 37.723 17.4241L37.6993 0.90048C37.6993 0.639564 37.4889 0.427967 37.2278 0.427967H29.9853C29.8445 0.427967 29.7116 0.491604 29.6215 0.60138L22.526 9.28799C22.3852 9.45981 22.1084 9.35958 22.1084 9.13844L22.0957 0.90048C22.0957 0.639564 21.8853 0.427967 21.6243 0.427967H13.7252C13.5923 0.427967 13.4673 0.48365 13.3772 0.58229L0.124489 17.1044C-0.152366 17.4082 0.0627898 17.8966 0.472536 17.8966H7.16136C7.299 17.8982 7.42872 17.8378 7.51732 17.7344Z" fill="#E12C46"/>
<path d="M64.5479 9.52974L69.5961 12.8214L78.4935 7.94356L70.4109 9.00313L65.1158 5.75918L56.2169 10.637L64.5479 9.52974Z" fill="#E12C46"/>
<path d="M53.3116 24.96C53.3116 24.9396 53.3068 24.9224 53.2956 24.9099C53.2844 24.8973 53.27 24.8911 53.2539 24.8911C53.2235 24.8911 53.1979 24.9146 53.1755 24.9616L52.5013 26.9387H51.3227L50.5973 24.9616C50.5797 24.9193 50.5541 24.8989 50.5189 24.8989C50.4885 24.8989 50.474 24.9208 50.474 24.9616V26.9387H49.1786V23.2116H50.94L51.84 25.4926C51.8528 25.5302 51.8768 25.5491 51.9104 25.5491C51.9409 25.5491 51.9617 25.5302 51.9745 25.4926L52.868 23.2116H54.6039V26.9387H53.3116V24.96Z" fill="#63696B"/>
<path d="M57.1981 26.502C56.8522 26.1698 56.6792 25.7296 56.6792 25.1813V24.9588C56.6792 24.4089 56.849 23.9702 57.1917 23.6412C57.5327 23.3122 58.0948 23.1462 58.8763 23.1462H59.1549C59.9235 23.1462 60.4808 23.3107 60.8267 23.6412C61.1726 23.9702 61.3455 24.4105 61.3455 24.9588V25.1813C61.3455 25.7265 61.171 26.1652 60.8235 26.4989C60.476 26.8326 59.9203 27.0002 59.1549 27.0002H58.8763C58.1028 26.9986 57.544 26.8341 57.1981 26.502ZM59.8435 25.7923C59.9844 25.6638 60.0532 25.4601 60.0532 25.1813V24.9588C60.0532 24.6846 59.9812 24.4825 59.8355 24.3541C59.6913 24.2256 59.4623 24.1614 59.1517 24.1614H58.8731C58.5656 24.1614 58.3382 24.2256 58.1893 24.3541C58.0404 24.4825 57.9651 24.6846 57.9651 24.9588V25.1813C57.9651 25.4554 58.0404 25.6591 58.1893 25.7891C58.3382 25.9207 58.5656 25.985 58.8731 25.985H59.1517C59.4736 25.985 59.7041 25.9208 59.8435 25.7923Z" fill="#63696B"/>
<path d="M62.9627 24.2241V23.2104H67.4912V24.2241H65.8915V26.936H64.596V24.2241H62.9627Z" fill="#63696B"/>
<path d="M69.6275 26.502C69.2816 26.1698 69.1087 25.7296 69.1087 25.1813V24.9588C69.1087 24.4089 69.2784 23.9702 69.6211 23.6412C69.9622 23.3122 70.5242 23.1462 71.3057 23.1462H71.5843C72.3529 23.1462 72.9102 23.3107 73.2561 23.6412C73.602 23.9702 73.7749 24.4105 73.7749 24.9588V25.1813C73.7749 25.7265 73.6004 26.1652 73.2529 26.4989C72.9054 26.8326 72.3497 27.0002 71.5843 27.0002H71.3057C70.5322 26.9986 69.9734 26.8341 69.6275 26.502ZM72.2745 25.7923C72.4154 25.6638 72.4843 25.4601 72.4843 25.1813V24.9588C72.4843 24.6846 72.4122 24.4825 72.2665 24.3541C72.1224 24.2256 71.8934 24.1614 71.5827 24.1614H71.3041C70.9966 24.1614 70.7692 24.2256 70.6203 24.3541C70.4714 24.4825 70.3961 24.6846 70.3961 24.9588V25.1813C70.3961 25.4554 70.4714 25.6591 70.6203 25.7891C70.7692 25.9207 70.9966 25.985 71.3041 25.985H71.5827C71.9046 25.985 72.1336 25.9208 72.2745 25.7923Z" fill="#63696B"/>
<path d="M80.2682 26.3187C80.3819 26.5067 80.4395 26.7103 80.4395 26.9297H79.0864C78.9871 26.5787 78.8078 26.303 78.5484 26.0993C78.289 25.8972 77.9078 25.7954 77.4018 25.7954H77.1424V26.9359H75.8469V23.2088H78.3274C78.9535 23.2088 79.4099 23.3232 79.6949 23.5504C79.98 23.7791 80.1225 24.1144 80.1225 24.5577C80.1225 24.7943 80.0616 25.0011 79.9415 25.1781C79.8198 25.3552 79.6437 25.4977 79.4099 25.6027C79.5396 25.6622 79.6629 25.7312 79.7798 25.8111C79.9896 25.9615 80.1529 26.1307 80.2682 26.3187ZM77.1424 24.7175C77.1424 24.7849 77.1568 24.8335 77.1872 24.8632C77.2177 24.893 77.2673 24.9071 77.3362 24.9071H78.3274C78.518 24.9071 78.6493 24.8789 78.7229 24.8209C78.7966 24.7645 78.8334 24.6768 78.8334 24.5577C78.8334 24.4402 78.7966 24.3541 78.7229 24.3008C78.6493 24.2475 78.518 24.2209 78.3274 24.2209H77.3362C77.2673 24.2209 77.2177 24.235 77.1872 24.2648C77.1568 24.2945 77.1424 24.3431 77.1424 24.4105V24.7175Z" fill="#63696B"/>
<path d="M84.6496 24.6862C85.4102 24.6862 85.9562 24.7724 86.2877 24.9432C86.6208 25.1139 86.7857 25.3724 86.7857 25.7202C86.7857 26.0038 86.7233 26.2372 86.5984 26.4205C86.4735 26.6038 86.2541 26.7464 85.9402 26.8482C85.6264 26.9501 85.1956 27.0002 84.6479 27.0002H84.2588C83.788 27.0002 83.3685 26.9783 82.9986 26.9375C82.6287 26.8952 82.3612 26.8514 82.1915 26.8044V25.797C82.4253 25.844 82.7328 25.8879 83.1139 25.9302C83.4966 25.9725 83.8777 25.9928 84.2572 25.9928H84.6463C84.9794 25.9928 85.2052 25.9725 85.3237 25.9333C85.4422 25.8926 85.5015 25.8221 85.5015 25.7202C85.5015 25.6278 85.4406 25.5589 85.3173 25.515C85.194 25.4711 84.9714 25.4492 84.6463 25.4492H83.9338C83.3124 25.4492 82.8545 25.3662 82.5598 25.1985C82.2668 25.0325 82.1195 24.7755 82.1195 24.4293C82.1195 23.5723 82.832 23.1431 84.2572 23.1431H84.6463C85.1348 23.1431 85.5255 23.165 85.8217 23.2089C86.118 23.2527 86.3309 23.2982 86.459 23.3452V24.3588C85.7977 24.2241 85.194 24.1567 84.6447 24.1567H84.2556C83.6936 24.1567 83.4133 24.2476 83.4133 24.4293C83.4133 24.4967 83.4373 24.5484 83.4838 24.5844C83.5318 24.6204 83.6151 24.6471 83.7368 24.6643C83.8569 24.6815 84.0298 24.6894 84.2556 24.6894H84.6496V24.6862Z" fill="#63696B"/>
</svg>
