<svg width="32" height="32" viewBox="0 0 32 32" fill="none" xmlns="http://www.w3.org/2000/svg">
<path opacity="0.4" d="M25.3333 11.9998C25.3333 13.9332 24.76 15.7065 23.7733 17.1865C22.3333 19.3199 20.0533 20.8265 17.4 21.2132C16.9466 21.2932 16.48 21.3332 16 21.3332C15.52 21.3332 15.0533 21.2932 14.6 21.2132C11.9466 20.8265 9.66663 19.3199 8.22663 17.1865C7.23996 15.7065 6.66663 13.9332 6.66663 11.9998C6.66663 6.83984 10.84 2.6665 16 2.6665C21.16 2.6665 25.3333 6.83984 25.3333 11.9998Z" fill="white"/>
<path d="M28.3333 24.6269L26.1333 25.1469C25.6399 25.2669 25.2533 25.6402 25.1466 26.1335L24.6799 28.0935C24.4266 29.1602 23.0666 29.4802 22.3599 28.6402L15.9999 21.3335L9.63994 28.6535C8.93328 29.4935 7.57328 29.1735 7.31994 28.1069L6.85328 26.1469C6.73328 25.6535 6.34661 25.2669 5.86661 25.1602L3.66661 24.6402C2.65328 24.4002 2.29328 23.1335 3.02661 22.4002L8.22661 17.2002C9.66661 19.3335 11.9466 20.8402 14.5999 21.2269C15.0533 21.3069 15.5199 21.3469 15.9999 21.3469C16.4799 21.3469 16.9466 21.3069 17.3999 21.2269C20.0533 20.8402 22.3333 19.3335 23.7733 17.2002L28.9733 22.4002C29.7066 23.1202 29.3466 24.3869 28.3333 24.6269Z" fill="white"/>
<path d="M16.7734 7.9735L17.56 9.54682C17.6667 9.76015 17.9467 9.97349 18.2 10.0135L19.6267 10.2535C20.5334 10.4002 20.7467 11.0668 20.0934 11.7202L18.9867 12.8268C18.8 13.0135 18.6934 13.3735 18.76 13.6402L19.08 15.0135C19.3334 16.0935 18.76 16.5201 17.8 15.9468L16.4667 15.1601C16.2267 15.0135 15.8267 15.0135 15.5867 15.1601L14.2534 15.9468C13.2934 16.5068 12.72 16.0935 12.9734 15.0135L13.2934 13.6402C13.3467 13.3868 13.2534 13.0135 13.0667 12.8268L11.96 11.7202C11.3067 11.0668 11.52 10.4135 12.4267 10.2535L13.8534 10.0135C14.0934 9.97349 14.3734 9.76015 14.48 9.54682L15.2667 7.9735C15.6534 7.12016 16.3467 7.12016 16.7734 7.9735Z" fill="white"/>
</svg>
