<svg width="17" height="17" viewBox="0 0 17 17" fill="none" xmlns="http://www.w3.org/2000/svg">
<path d="M12.042 1.41699H4.95866C3.00366 1.41699 1.41699 2.99658 1.41699 4.94449V9.18033V9.88866C1.41699 11.8366 3.00366 13.4162 4.95866 13.4162H6.02116C6.21241 13.4162 6.46741 13.5437 6.58783 13.6995L7.65033 15.1091C8.11783 15.7324 8.88283 15.7324 9.35033 15.1091L10.4128 13.6995C10.5474 13.5224 10.7599 13.4162 10.9795 13.4162H12.042C13.997 13.4162 15.5837 11.8366 15.5837 9.88866V4.94449C15.5837 2.99658 13.997 1.41699 12.042 1.41699ZM5.66699 8.50033C5.27033 8.50033 4.95866 8.18158 4.95866 7.79199C4.95866 7.40241 5.27741 7.08366 5.66699 7.08366C6.05658 7.08366 6.37533 7.40241 6.37533 7.79199C6.37533 8.18158 6.06366 8.50033 5.66699 8.50033ZM8.50033 8.50033C8.10366 8.50033 7.79199 8.18158 7.79199 7.79199C7.79199 7.40241 8.11074 7.08366 8.50033 7.08366C8.88991 7.08366 9.20866 7.40241 9.20866 7.79199C9.20866 8.18158 8.89699 8.50033 8.50033 8.50033ZM11.3337 8.50033C10.937 8.50033 10.6253 8.18158 10.6253 7.79199C10.6253 7.40241 10.9441 7.08366 11.3337 7.08366C11.7232 7.08366 12.042 7.40241 12.042 7.79199C12.042 8.18158 11.7303 8.50033 11.3337 8.50033Z" fill="#C4C4C4"/>
</svg>
