<svg width="27" height="27" viewBox="0 0 27 27" fill="none" xmlns="http://www.w3.org/2000/svg">
<path d="M18.2138 2.25H8.78625C4.69125 2.25 2.25 4.69125 2.25 8.78625V18.2025C2.25 22.3088 4.69125 24.75 8.78625 24.75H18.2025C22.2975 24.75 24.7388 22.3088 24.7388 18.2138V8.78625C24.75 4.69125 22.3088 2.25 18.2138 2.25ZM16.6388 14.0962L12.6675 18.0675C12.4988 18.2362 12.285 18.315 12.0712 18.315C11.8575 18.315 11.6438 18.2362 11.475 18.0675C11.1487 17.7412 11.1487 17.2013 11.475 16.875L14.85 13.5L11.475 10.125C11.1487 9.79875 11.1487 9.25875 11.475 8.9325C11.8012 8.60625 12.3413 8.60625 12.6675 8.9325L16.6388 12.9038C16.9762 13.23 16.9762 13.77 16.6388 14.0962Z" fill="white"/>
</svg>
