<svg width="61" height="44" viewBox="0 0 61 44" fill="none" xmlns="http://www.w3.org/2000/svg">
<path d="M28.538 0L26.9327 8.19433C22.5331 8.66937 19.4415 10.332 17.6579 13.1822C15.9932 15.9136 14.6257 20.0702 13.5556 25.6518H23.1871L19.2632 44H0L4.10234 25.83C6.00487 17.7544 8.68031 11.5789 12.1287 7.30364C15.577 2.90958 21.0468 0.475035 28.538 0ZM61 0L59.3947 8.19433C54.9951 8.78812 51.9035 10.4507 50.1199 13.1822C48.4552 15.9136 47.0877 20.0702 46.0175 25.6518H55.6491L51.7251 44H32.462L36.5643 25.83C38.4669 17.7544 41.1423 11.5789 44.5906 7.30364C48.039 2.90958 53.5088 0.475035 61 0Z" fill="#F2F4F7"/>
</svg>
