<svg width="23" height="23" viewBox="0 0 23 23" fill="none" xmlns="http://www.w3.org/2000/svg">
<path d="M11.6533 10.4169C11.5575 10.4073 11.4425 10.4073 11.3371 10.4169C9.05625 10.3403 7.245 8.4715 7.245 6.1715C7.245 3.82359 9.1425 1.9165 11.5 1.9165C13.8479 1.9165 15.755 3.82359 15.755 6.1715C15.7454 8.4715 13.9342 10.3403 11.6533 10.4169Z" stroke="black" stroke-width="1.5" stroke-linecap="round" stroke-linejoin="round"/>
<path d="M6.86169 13.9535C4.54252 15.506 4.54252 18.036 6.86169 19.5789C9.49711 21.3422 13.8192 21.3422 16.4546 19.5789C18.7738 18.0264 18.7738 15.4964 16.4546 13.9535C13.8288 12.1997 9.50669 12.1997 6.86169 13.9535Z" stroke="black" stroke-width="1.5" stroke-linecap="round" stroke-linejoin="round"/>
</svg>
