<svg width="22" height="22" viewBox="0 0 22 22" fill="none" xmlns="http://www.w3.org/2000/svg">
<g clip-path="url(#clip0_505_18352)">
<path d="M0.916992 10.0837C5.9796 10.0837 10.0837 5.9796 10.0837 0.916992H11.917C11.917 5.9796 16.0211 10.0837 21.0837 10.0837V11.917C16.0211 11.917 11.917 16.0211 11.917 21.0837H10.0837C10.0837 16.0211 5.9796 11.917 0.916992 11.917V10.0837ZM5.32013 11.0003C7.8552 12.1089 9.8918 14.1454 11.0003 16.6805C12.1089 14.1454 14.1454 12.1089 16.6805 11.0003C14.1454 9.8918 12.1089 7.8552 11.0003 5.32013C9.8918 7.8552 7.8552 9.8918 5.32013 11.0003Z" fill="#E12C46"/>
</g>
<defs>
<clipPath id="clip0_505_18352">
<rect width="22" height="22" fill="white"/>
</clipPath>
</defs>
</svg>
