<svg width="23" height="23" viewBox="0 0 23 23" fill="none" xmlns="http://www.w3.org/2000/svg">
<path d="M19.1667 12.4583C19.1667 14.5754 18.3086 16.4921 16.9212 17.8795L18.2765 19.2348C20.0107 17.5005 21.0833 15.1047 21.0833 12.4583C21.0833 7.1656 16.7927 2.875 11.5 2.875C6.20726 2.875 1.91666 7.1656 1.91666 12.4583C1.91666 15.1047 2.98931 17.5005 4.72355 19.2348L6.07884 17.8795C4.69144 16.4921 3.83332 14.5754 3.83332 12.4583C3.83332 8.22415 7.2658 4.79167 11.5 4.79167C15.7342 4.79167 19.1667 8.22415 19.1667 12.4583ZM14.6558 7.94743L10.0625 11.9792L11.9792 13.8958L16.0111 9.30271L14.6558 7.94743Z" fill="white"/>
</svg>
