<svg width="72" height="72" viewBox="0 0 72 72" fill="none" xmlns="http://www.w3.org/2000/svg">
<circle cx="36" cy="36" r="36" fill="#25C418"/>
<path opacity="0.4" d="M41.6534 24.8662H30.3467C27.0534 24.8662 24.3867 27.5462 24.3867 30.8262V43.3729C24.3867 46.6529 27.0667 49.3329 30.3467 49.3329H41.6401C44.9334 49.3329 47.6 46.6529 47.6 43.3729V30.8262C47.6134 27.5329 44.9334 24.8662 41.6534 24.8662Z" fill="white"/>
<path d="M39.1333 22.667H32.8667C31.48 22.667 30.3467 23.787 30.3467 25.1737V26.427C30.3467 27.8137 31.4667 28.9337 32.8533 28.9337H39.1333C40.52 28.9337 41.64 27.8137 41.64 26.427V25.1737C41.6533 23.787 40.52 22.667 39.1333 22.667Z" fill="white"/>
<path d="M34.4132 42.5995C34.1598 42.5995 33.9065 42.5062 33.7065 42.3062L31.7065 40.3062C31.3198 39.9195 31.3198 39.2795 31.7065 38.8929C32.0932 38.5062 32.7332 38.5062 33.1198 38.8929L34.4132 40.1862L39.0398 35.5595C39.4265 35.1729 40.0665 35.1729 40.4532 35.5595C40.8398 35.9462 40.8398 36.5862 40.4532 36.9729L35.1198 42.3062C34.9332 42.5062 34.6665 42.5995 34.4132 42.5995Z" fill="white"/>
</svg>
