<svg width="23" height="23" viewBox="0 0 23 23" fill="none" xmlns="http://www.w3.org/2000/svg">
<path d="M10.0625 16.2915H3.83334V14.3748H10.0625C11.915 14.3748 13.4167 15.8765 13.4167 17.729C13.4167 19.5815 11.915 21.0832 10.0625 21.0832C8.62459 21.0832 7.39801 20.1784 6.92105 18.9071L8.71617 18.2339C8.92058 18.7788 9.44626 19.1665 10.0625 19.1665C10.8564 19.1665 11.5 18.5229 11.5 17.729C11.5 16.9351 10.8564 16.2915 10.0625 16.2915ZM4.79167 10.5415H17.7292C19.5816 10.5415 21.0833 12.0432 21.0833 13.8957C21.0833 15.7481 19.5816 17.2498 17.7292 17.2498C16.2913 17.2498 15.0647 16.3451 14.5878 15.0737L16.3828 14.4005C16.5872 14.9454 17.113 15.3332 17.7292 15.3332C18.5231 15.3332 19.1667 14.6896 19.1667 13.8957C19.1667 13.1018 18.5231 12.4582 17.7292 12.4582H4.79167C3.20386 12.4582 1.91667 11.171 1.91667 9.58317C1.91667 7.99536 3.20386 6.70817 4.79167 6.70817H12.9375C13.7314 6.70817 14.375 6.06458 14.375 5.27067C14.375 4.47676 13.7314 3.83317 12.9375 3.83317C12.3213 3.83317 11.7956 4.22094 11.5911 4.76579L9.79609 4.09262C10.2731 2.8213 11.4996 1.9165 12.9375 1.9165C14.79 1.9165 16.2917 3.41821 16.2917 5.27067C16.2917 7.12313 14.79 8.62484 12.9375 8.62484H4.79167C4.2624 8.62484 3.83334 9.0539 3.83334 9.58317C3.83334 10.1125 4.2624 10.5415 4.79167 10.5415Z" fill="white"/>
</svg>
